:SAMPLES-PER-SECOND 30
:FULLY-SPECIFIED
:DEGREES
1876
root  11.742 40.1038 29.8638 23.0292 83.3262 19.3311
RightUpLeg  -15.8579 -17.5623 -8.98805
RightLeg  14.5764 -2.72493 0.916377
RightFoot  1.40485 -0.282039 2.61066
RightToes  0.000481921 0.542163 -0.142578
Spine  23.9473 -0.304295 4.1574
Spine1  -0.786045 0.679939 -1.07881
HEad  -20.2684 6.00921 -2.72119
LeftShoulder1  8.73721 -14.5061 -42.1247
LeftArm  5.0276 -0.356096 -38.689
LeftForeArm  -176.885 -61.4067 -163.072
LeftHand  -0.25398 0.0180481 5.50724
RightShoulder  5.32203 10.6541 31.6442
RightArm  8.98287 -1.78018 45.1243
RightForeArm  164.196 66.1771 157.181
RightHand  -1.45602 4.31618 -17.6285
LeftUpLeg  -12.6024 16.7417 5.71615
LeftLeg  13.3484 17.1775 1.99596
LeftFoot  -3.44081 0.344617 -4.64242
LeftToes  1.06245e-005 4.65868e-005 -8.65517e-006
1877
root  11.9655 40.2466 30.451 24.1123 83.5348 20.1975
RightUpLeg  -14.6529 -17.2 -9.00515
RightLeg  13.2976 -3.82919 2.14489
RightFoot  1.41861 -0.205081 1.91737
RightToes  0.000481921 0.542163 -0.142578
Spine  22.3922 -0.349178 4.18473
Spine1  -0.988925 0.516906 -0.894445
HEad  -18.5774 6.20489 -2.21635
LeftShoulder1  8.52273 -14.3237 -41.4664
LeftArm  5.35274 0.632156 -39.2709
LeftForeArm  -176.706 -61.4726 -163.044
LeftHand  -0.25398 0.0180481 5.50724
RightShoulder  5.26697 10.4314 31.8509
RightArm  10.1203 -1.72184 44.8877
RightForeArm  164.217 66.2232 157.135
RightHand  -1.43687 4.27294 -17.4783
LeftUpLeg  -12.1511 13.9492 6.13322
LeftLeg  12.7909 17.5824 2.40247
LeftFoot  -5.87594 0.188869 -3.19019
LeftToes  1.06245e-005 4.65868e-005 -8.65517e-006
1878
root  12.1529 40.3541 30.9655 24.0163 83.6554 19.8473
RightUpLeg  -13.9118 -15.9697 -8.73996
RightLeg  12.5168 -5.46844 2.76429
RightFoot  1.06023 -0.117828 1.15064
RightToes  0.000481921 0.542163 -0.142578
Spine  21.387 -0.417367 4.50734
Spine1  -1.49235 0.441426 -0.952132
HEad  -18.0267 6.33287 -1.97634
LeftShoulder1  8.33851 -14.1423 -40.9485
LeftArm  5.80073 1.22416 -39.6797
LeftForeArm  -176.385 -61.4855 -163.064
LeftHand  -0.25398 0.0180481 5.50724
RightShoulder  5.24732 10.3527 31.9248
RightArm  10.6003 -2.08567 44.5665
RightForeArm  164.483 65.9621 157.429
RightHand  -1.42434 4.26963 -17.3367
LeftUpLeg  -12.604 11.9405 5.87035
LeftLeg  13.3812 15.1598 2.99543
LeftFoot  -7.41226 0.107498 -1.90072
LeftToes  1.06245e-005 4.65868e-005 -8.65517e-006
1879
root  12.3209 40.4224 31.3906 25.104 83.8733 21.0013
RightUpLeg  -12.8925 -14.5254 -8.81374
RightLeg  11.7191 -7.15719 3.32252
RightFoot  0.672733 -0.0870437 0.871588
RightToes  0.000481921 0.542163 -0.142578
Spine  20.6285 -0.498694 4.78732
Spine1  -1.38014 0.329071 -0.85463
HEad  -18.4704 6.12554 -2.02669
LeftShoulder1  8.19266 -14.0334 -40.4424
LeftArm  6.18822 1.19902 -40.2198
LeftForeArm  -176.094 -61.5914 -163.018
LeftHand  -0.25398 0.0180481 5.50724
RightShoulder  5.16338 10.2766 31.5205
RightArm  10.4726 -2.5368 44.603
RightForeArm  164.536 65.7331 157.663
RightHand  -1.43428 4.2952 -17.4097
LeftUpLeg  -13.2709 11.1872 4.85639
LeftLeg  14.856 10.0462 2.82732
LeftFoot  -7.67402 0.127906 -2.53283
LeftToes  1.06245e-005 4.65868e-005 -8.65517e-006
1880
root  12.4936 40.4784 31.7303 28.1019 84.2459 24.1479
RightUpLeg  -11.7382 -13.4109 -9.16439
RightLeg  10.8351 -8.75384 3.9432
RightFoot  0.47673 -0.0912576 0.91269
RightToes  0.000481921 0.542163 -0.142578
Spine  19.6901 -0.590383 5.10803
Spine1  -0.86798 0.215202 -0.803632
HEad  -18.8552 5.61636 -2.37668
LeftShoulder1  8.11987 -14.059 -39.9861
LeftArm  6.59109 0.909039 -40.8531
LeftForeArm  -175.928 -61.8571 -162.849
LeftHand  -0.25398 0.0180481 5.50724
RightShoulder  5.01681 10.0898 30.9555
RightArm  10.0065 -3.15382 44.7593
RightForeArm  164.321 65.6434 157.727
RightHand  -1.45337 4.29727 -17.6302
LeftUpLeg  -13.8943 11.3875 3.13854
LeftLeg  16.5162 5.22863 2.03947
LeftFoot  -7.11584 0.202739 -4.32276
LeftToes  1.06245e-005 4.65868e-005 -8.65517e-006
1881
root  12.676 40.5472 32.005 29.1692 84.2611 25.0826
RightUpLeg  -10.9391 -12.7437 -9.1816
RightLeg  9.799 -9.58707 4.41886
RightFoot  0.473417 -0.0889028 0.890291
RightToes  0.000481921 0.542163 -0.142578
Spine  18.6597 -0.604875 5.74122
Spine1  -0.74909 0.372241 -1.59298
HEad  -18.7444 5.37248 -2.7963
LeftShoulder1  7.98306 -14.0788 -39.1971
LeftArm  7.00089 0.912835 -41.6729
LeftForeArm  -175.779 -62.119 -162.68
LeftHand  -0.25398 0.0180481 5.50724
RightShoulder  5.01289 10.0067 31.1544
RightArm  9.50274 -4.01145 44.271
RightForeArm  164.131 65.5282 157.818
RightHand  -1.45472 4.26417 -17.7031
LeftUpLeg  -14.2553 12.214 1.18634
LeftLeg  17.4634 3.58853 1.60496
LeftFoot  -6.65731 0.285048 -6.00896
LeftToes  1.06245e-005 4.65868e-005 -8.65517e-006
